Coordinates
version=1
nRows=10
nColumns=23
inDegrees=yes

Units are S.I. units (second, meters, Newtons, ...)
If the header above contains a line with 'inDegrees', this indicates whether rotational values are in degrees (yes) or radians (no).

endheader
time	pelvis_tilt	pelvis_list	pelvis_rotation	pelvis_tx	pelvis_ty	pelvis_tz	hip_flexion_r	hip_adduction_r	hip_rotation_r	knee_angle_r	knee_angle_r_beta	ankle_angle_r	subtalar_angle_r	mtp_angle_r	hip_flexion_l	hip_adduction_l	hip_rotation_l	knee_angle_l	knee_angle_l_beta	ankle_angle_l	subtalar_angle_l	mtp_angle_l
     15.00000000	     -3.89542637	      0.89081021	      0.31704649	      2.14385297	      1.02387166	      1.02045196	     25.99645869	     -3.44117035	     -0.79050912	     75.82000879	      1.32330879	      5.54132886	    -20.29344802	      0.00000000	      5.93675931	     -0.95475596	    -13.61086599	     35.98028768	      0.62797449	     27.21549275	      7.19485172	      0.00000000
     15.00666667	     -3.63957250	     -0.21394986	      0.39187574	      2.14530807	      1.02876438	      1.02063789	     26.10058580	     -2.24938938	     -1.63386818	     73.52202259	      1.28320137	      6.12284974	    -19.87194109	      0.00000000	      3.98609069	     -2.15870955	    -13.92859146	     34.61972399	      0.60422817	     26.05981347	      7.99172395	      0.00000000
     15.01333333	     -3.72889051	     -1.08634756	      0.31617825	      2.14661568	      1.03315366	      1.02096609	     26.60645272	     -1.26668138	     -2.29001628	     71.19215618	      1.24253753	      6.77302070	    -19.20587747	      0.00000000	      2.45000594	     -3.04136903	    -14.23528269	     33.25768925	      0.58045618	     24.48834280	      8.14065514	      0.00000000
     15.02000000	     -3.53441763	     -2.11183397	      0.42703853	      2.14828911	      1.03808862	      1.02095189	     26.59410993	     -0.22952331	     -3.22014261	     68.51037659	      1.19573164	      7.17905791	    -18.69552906	      0.00000000	      0.64458391	     -4.09457092	    -14.48628716	     31.90132896	      0.55678323	     22.58341329	      8.44404254	      0.00000000
     15.02666667	     -3.21273790	     -3.16991356	      0.62541590	      2.15025367	      1.04325434	      1.02079046	     26.28818082	      0.75501574	     -4.33788670	     65.56041064	      1.14424502	      7.52170647	    -18.09816863	      0.00000000	     -1.24846870	     -5.21550777	    -14.80861716	     30.58502296	      0.53380935	     20.56477419	      8.77710848	      0.00000000
     15.03333333	     -3.19948736	     -4.00265138	      0.64836021	      2.15197309	      1.04781416	      1.02088066	     26.34240633	      1.59462077	     -5.20781972	     62.60595571	      1.09268006	      7.93048363	    -17.28774896	      0.00000000	     -2.74076065	     -6.03876824	    -15.12647257	     29.34858002	      0.51222935	     18.24877482	      8.61498578	      0.00000000
     15.04000000	     -3.17690027	     -4.79636065	      0.69070407	      2.15374309	      1.05228256	      1.02095021	     26.28955422	      2.37939693	     -6.11966874	     59.48703269	      1.03824458	      8.30435377	    -16.36027009	      0.00000000	     -4.16938031	     -6.82683084	    -15.44695404	     28.20367037	      0.49224691	     15.80509766	      8.36985235	      0.00000000
     15.04666667	     -4.11901177	     -5.03872787	      0.37701630	      2.15485584	      1.05500987	      1.02174217	     27.44783033	      2.78336975	     -6.47527258	     56.64675571	      0.98867240	      8.66742316	    -15.47792829	      0.00000000	     -4.35961081	     -7.06507374	    -16.03680100	     27.48974658	      0.47978659	     13.48063974	      8.48511890	      0.00000000
     15.05333333	     -3.20798692	     -6.06489456	      0.72119953	      2.15727539	      1.06062222	      1.02125667	     26.04291039	      3.64668082	     -7.89494635	     52.91660872	      0.92356905	      9.06545326	    -13.93370706	      0.00000000	     -6.74670100	     -8.03501118	    -16.01994740	     26.15071980	      0.45641616	     10.54203162	      7.39940554	      0.00000000
     15.06000000	     -3.21180342	     -6.58018508	      0.70735626	      2.15901520	      1.06448777	      1.02155079	     25.79541778	      4.19551379	     -8.75524915	     49.48458701	      0.86366897	      9.47396511	    -12.33402748	      0.00000000	     -7.93472955	     -8.52444169	    -16.32853217	     25.29257339	      0.44143868	      7.83991509	      6.80451704	      0.00000000
